<mxfile host="app.diagrams.net" agent="Mozilla/5.0 (Windows NT 10.0; Win64; x64) AppleWebKit/537.36 (KHTML, like Gecko) Chrome/131.0.0.0 Safari/537.36" version="25.0.3">
  <diagram name="Pagina-1" id="6G40AudnX4V3arxLj7MN">
    <mxGraphModel dx="1050" dy="522" grid="1" gridSize="10" guides="1" tooltips="1" connect="1" arrows="1" fold="1" page="1" pageScale="1" pageWidth="827" pageHeight="1169" math="0" shadow="0">
      <root>
        <mxCell id="0" />
        <mxCell id="1" parent="0" />
        <mxCell id="Xy6Fc_QJERTIxOceRlBJ-1" value="Utente registrato" style="shape=umlActor;verticalLabelPosition=bottom;verticalAlign=top;html=1;" vertex="1" parent="1">
          <mxGeometry x="140" y="270" width="50" height="80" as="geometry" />
        </mxCell>
        <mxCell id="Xy6Fc_QJERTIxOceRlBJ-2" value="login" style="ellipse;whiteSpace=wrap;html=1;" vertex="1" parent="1">
          <mxGeometry x="350" y="50" width="140" height="70" as="geometry" />
        </mxCell>
        <mxCell id="Xy6Fc_QJERTIxOceRlBJ-3" value="Effettuare ricerche di immobili" style="ellipse;whiteSpace=wrap;html=1;" vertex="1" parent="1">
          <mxGeometry x="350" y="150" width="140" height="70" as="geometry" />
        </mxCell>
        <mxCell id="Xy6Fc_QJERTIxOceRlBJ-4" value="Visualizza storico ricerche" style="ellipse;whiteSpace=wrap;html=1;" vertex="1" parent="1">
          <mxGeometry x="350" y="250" width="140" height="70" as="geometry" />
        </mxCell>
        <mxCell id="Xy6Fc_QJERTIxOceRlBJ-5" value="Fare proposta a un immobile" style="ellipse;whiteSpace=wrap;html=1;" vertex="1" parent="1">
          <mxGeometry x="350" y="360" width="140" height="70" as="geometry" />
        </mxCell>
        <mxCell id="Xy6Fc_QJERTIxOceRlBJ-6" value="Visualizzare offerte di un immobile" style="ellipse;whiteSpace=wrap;html=1;" vertex="1" parent="1">
          <mxGeometry x="350" y="460" width="140" height="70" as="geometry" />
        </mxCell>
        <mxCell id="Xy6Fc_QJERTIxOceRlBJ-7" value="Visualizzare notifiche" style="ellipse;whiteSpace=wrap;html=1;" vertex="1" parent="1">
          <mxGeometry x="350" y="570" width="140" height="70" as="geometry" />
        </mxCell>
        <mxCell id="Xy6Fc_QJERTIxOceRlBJ-8" value="Disattivare le notifiche" style="ellipse;whiteSpace=wrap;html=1;" vertex="1" parent="1">
          <mxGeometry x="350" y="680" width="140" height="70" as="geometry" />
        </mxCell>
      </root>
    </mxGraphModel>
  </diagram>
</mxfile>
